<svg xmlns="http://www.w3.org/2000/svg" viewBox="0 0 416 420"><path d="M404.1 212.6c.3 110.7-87.8 200.7-196.8 201-109 .4-197.6-89.1-198-199.8v-1.2C9 101.9 97.1 11.9 206.1 11.6c109-.3 197.7 89.2 198 199.9v1.1z" fill-rule="evenodd" clip-rule="evenodd" stroke="#000"/><radialGradient id="a" cx="-237.321" cy="690.896" r="114.281" gradientTransform="matrix(-3.5372 -.5095 -.4357 3.0433 -192.347 -1860.4)" gradientUnits="userSpaceOnUse"><stop offset="0" stop-color="#5eb5ff"/><stop offset="1" stop-opacity="0"/></radialGradient><path d="M9.9 191.5C23.1 82.8 121.8 5.4 230.4 18.7s186 112.2 172.8 220.9-112 186-220.6 172.8C74 399.1-3.3 300.2 9.9 191.5z" fill-rule="evenodd" clip-rule="evenodd" fill="url(#a)"/><radialGradient id="b" cx="255.911" cy="536.323" r="128.764" gradientTransform="matrix(2.2448 -.1928 -.1346 -1.91 -480.4 1047.87)" gradientUnits="userSpaceOnUse"><stop offset="0" stop-color="#fff"/><stop offset="1" stop-color="#fff" stop-opacity="0"/></radialGradient><path d="M404.1 212.9c.3 111.3-88.1 201.8-197.4 202.1-109.3.3-198.2-89.7-198.5-201v-1.1c0-111.3 88.5-201.6 197.9-201.7 109.3-.1 198 90.1 198.1 201.5-.1.1-.1.1-.1.2z" fill="url(#b)"/><path d="M207.8 179.6c-16.8 0-30.5 14.3-30.5 31.9 0 17.6 13.6 31.9 30.5 31.9 16.8 0 30.5-14.3 30.5-31.9-.1-17.7-13.7-31.9-30.5-31.9zm-129.7 0c-16.8 0-30.5 14.3-30.5 31.9 0 17.6 13.6 31.9 30.5 31.9 16.8 0 30.5-14.3 30.5-31.9 0-17.7-13.7-31.9-30.5-31.9zm259.5-30.7c28.9 0 53.2 22.1 58.8 50.6l-30.2-.1c-4.6-11.4-15.5-19.2-28.1-19.2-16.8 0-30.5 14.3-30.5 31.9 0 17.6 13.6 31.9 30.5 31.9 12.6 0 23.6-7.6 28.2-19.1l30.2-.1c-5.6 28.6-30 49.7-59 49.7-33.1 0-60-28.1-60-62.8s27-62.8 60.1-62.8zm-259.9-.3c33.2 0 62 27.9 62 62.6v63.6l-30.2.2v-17.2c-8.3 9.9-17.9 16.5-31.9 16.4-33.1-.2-60-28.1-60-62.8s27-62.8 60.1-62.8zm68.8-40.9h30.1v59.1c8.4-9.9 17.9-16.5 31.9-16.4 33.1.2 60 28.1 60 62.8s-26.9 62.8-60 62.8-62-27.9-62-62.6V107.7z" fill-rule="evenodd" clip-rule="evenodd" fill="#fff"/></svg>