<svg xmlns="http://www.w3.org/2000/svg" width="2000" height="800"><path d="M1077.135 712.131c-34.951-12.73-46.511-45.917-57.692-78.009-4.269-12.254-8.682-24.925-14.362-36.338-4.59-9.209-11.772-16.266-18.716-23.09-9.034-8.871-18.369-18.04-21.22-31.568l-.535-2.539-2.592-.074c-35.794-1.009-57.257-16.564-63.792-46.24l-.276-1.26-1.06-.737c-2.676-1.859-5.488-3.53-8.462-5.301-11.668-6.943-26.155-15.566-25.362-37.648l.087-2.523-2.411-.742c-5.289-1.627-9.687-2.416-13.444-2.416-6.498 0-11.967 2.229-18.288 7.454l-.831.688-1.071-.153c-12.539-1.773-25.088-1.833-37.224-1.889-26.442-.121-51.417-.233-67.353-19.166-2.068-2.46-2.955-5.865-3.813-9.159-.691-2.654-1.344-5.156-2.542-7.447-3.003-5.739-6.648-11.449-10.506-17.496-7.887-12.352-16.034-25.115-18.03-37.82-3.954-25.181 2.308-53.929 17.63-80.946l.469-.825-.044-.95c-1.096-24.153 11.169-35.603 21.991-45.706l.629-.587.262-.82c10.409-32.724 29.603-59.176 57.047-78.625l.711-.504.868.059c.627.042 1.333.063 2.157.063 1.135 0 2.291-.04 3.41-.078l.247-.008c1.445-.051 2.643-.09 3.83-.09 1.825 0 4.187.078 6.28.683l1.908.55 1.377-1.43c14.345-14.906 30.604-31.801 63.284-32.034l1.235-.009.923-.817c22.381-19.826 53.479-21.485 83.41-21.485 3.222 0 6.443.021 9.65.043l.616.003c3.154.022 6.294.042 9.412.045 4.456 0 8.627-.974 13.045-2.003 4.401-1.028 8.95-2.091 13.711-2.091.55 0 1.102.014 1.659.044 3.16.172 6.292 1.821 9.058 3.275 2.46 1.291 4.994 2.621 7.181 2.8.315.028.634.04.955.04 3.468 0 7.328-1.421 11.414-2.923 4.296-1.58 8.731-3.21 13.03-3.21.258 0 .514.004.77.017 3.069.15 7.415 1.708 12.011 3.357 3.09 1.111 6.261 2.25 8.616 2.767 4.629 1.015 8.762 1.541 12.758 2.051 4.168.529 8.095 1.028 11.635 2.026 3.591 1.02 6.587 3.441 9.228 5.578 2.125 1.714 4.128 3.327 6.281 4.255l.963.414 1.024-.219c.856-.182 2.126-.613 3.053-.926 1.81-.615 3.356-1.141 4.675-1.141.282 0 .561.025.829.075 18.801 3.507 40.346 20.39 50.7 28.503l1.747 1.367 1.92-1.101c1.882-1.077 3.828-2.191 6.442-2.191 1.871 0 3.849.561 6.222 1.765l.254.118.064.024c20.414 7.412 35.402 23.523 49.897 39.104 4.944 5.315 10.057 10.812 15.32 15.887 30.264 29.193 58.166 62.933 57.412 111.723l-.025 1.725 1.403 1.002c6.36 4.553 11.516 12.801 14.904 23.853 5.804 18.917 5.118 41.017-1.705 54.993l-.438.893.132.987c7.27 54.588-10.084 103.354-47.608 133.793l-.489.397-.618.111a20.477 20.477 0 0 1-3.712.351c-2.453 0-4.456-.503-6.254-1.046l-2.923-.885-1.101 2.849c-17.049 44.146-68.928 91.065-131.495 91.069-18.036 0-35.621-3.96-52.266-11.771l-4.511-2.113-.177 4.977c-.623 17.272-.47 39.332 6.304 56.744 1.083 2.787 2.628 5.101 4.122 7.337.674 1.012 1.251 1.876 1.789 2.771 9.579 15.93 9.104 25.925 8.554 37.499-.188 3.934-.771 5.77-1.138 6.552l-12.429-4.532zm-52.707-180.652c-5.725.832-11.434 1.735-16.952 2.608l-.765.12c-7.66 1.215-15.58 2.472-23.584 3.554l-3.665.498.917 3.581c2.827 11.029 10.605 18.569 19.612 27.298 7.435 7.201 15.121 14.649 19.623 24.517 4.372 9.602 7.402 19.451 10.334 28.972 3.845 12.5 7.471 24.296 13.818 35.495 4.491 7.963 9.675 14.261 15.035 20.544l1.408 1.65 5.001-3.258-.939-1.954c-5.978-12.451-5.79-29.947-5.608-46.866v-.111c.116-11.142.234-22.648-1.288-33.103-1.466-10.137-7.609-18.053-14.112-26.435-7.245-9.339-15.454-19.921-15.069-33.762l.109-3.915-3.875.567zm16.757.116c8.011 44.243 39.218 69.62 85.615 69.621 5.023 0 10.262-.301 15.568-.894 50.304-5.622 85.318-46.642 101.313-83.155l1.11-2.531-2.3-1.53c-8.431-5.615-18.504-9.461-29.171-13.53-12.999-4.961-26.438-10.091-36.381-18.773l-2.157-1.883-2.163 1.873c-18.499 16.02-38.82 31.169-62.036 33.507-.319.031-.65.048-1.013.048-2.834 0-5.623-1.172-8.085-2.205-2.235-.944-4.54-1.911-6.586-1.911h-.068l-.065.006c-6.654.542-13.075 4.064-19.87 7.794-8.335 4.569-17.781 9.748-28.343 9.753-.622 0-1.272-.02-1.934-.059l-4.181-.251.747 4.12zm-130.472-48.171c1.482 28.582 20.928 42.475 59.447 42.475 15.656 0 34.623-2.391 57.983-7.313l2.33-.491.263-2.366c.05-.433.173-.905.31-1.389l.532-1.917 1.309-1.516c1.878-2.181 4.646-3.613 6.478-4.563 3.152-1.633 5.327-2.86 6.813-4.96l1.124-1.592-.851-1.753c-1.595-3.271-4.166-5.483-7.146-8.044-4.381-3.771-9.348-8.049-10.224-16.272l-.393-3.725 3.572 1.13c16.896 5.35 25.381 16.004 25.945 32.569l.006.192-.027.211a12.525 12.525 0 0 1-.488 2.243l-1.775 5.518 5.65-1.303c24.166-5.596 43.781-16.798 53.817-30.73 7.654-10.629 9.9-22.773 6.674-36.094-1.335-5.557-4.766-8.449-8.738-11.8-3.775-3.188-8.472-7.15-11.341-14.094l-1.664-4.023 4.301.664c17.291 2.665 28.283 16.048 29.408 35.795.822 14.369-3.842 30.361-12.175 41.737l-6.06 8.271 9.743-3.2c17.969-5.901 31.022-17.368 41.848-27.655l1.141-1.08-.127-1.568c-.11-1.368-.307-2.761-.479-3.992-.634-4.507-1.281-9.113.723-14.425 2.281-6.048 7.165-7.903 11.477-9.542 3.358-1.277 6.523-2.484 9.222-5.398l.111-.128.108-.135.032-.047c.707-1.016 1.212-2.735 2.076-6.209.8-3.204 1.708-6.837 3.519-9.395a65.112 65.112 0 0 1 3.326-4.282l5.791-6.835-8.841 1.458c-2.586.427-5.331.635-8.395.635-7.243 0-15.495-1.052-22.774-1.979l-.096-.012c-4.184-.533-8.141-1.037-11.643-1.316l-1.281-.105-.645-1.114c-2.716-4.69-3.653-10.908-4.558-16.92-.854-5.651-1.732-11.486-4.049-15.364l-.715-1.203-1.365-.318a22.39 22.39 0 0 0-5.135-.579c-4.608 0-8.89 1.263-13.425 2.602l-.083.024c-4.313 1.271-8.771 2.584-13.337 2.584-4.784 0-9.107-1.448-13.214-4.427l-4.099-2.975 4.879-1.37c37.957-10.649 65.315-31.311 81.312-61.41l.707-1.333 1.506.033 1.318.015c17.705 0 28.423-7.011 34.765-22.732l.998-2.475 2.383 1.205c2.096 1.06 4.705 2.377 5.337 5.794l.081.44-.08.445c-2.84 15.618-14.128 24.999-33.554 27.879l-1.604.238-.788 1.416c-7.885 14.16-20.782 23.309-33.256 32.156l-.132.094c-3.679 2.611-7.163 5.082-10.574 7.7l-4.818 3.7 6.682 2.357c3.173 1.131 6.774 2.414 8.933 5.427l.234.326.117.385c1.109 3.642 1.448 7.929 1.773 12.077.345 4.387.735 9.361 2.142 12.654l.792 1.849 2.005.142c2.242.156 4.476.343 6.689.526l.647.053c5.547.468 10.787.91 15.853.91 9.432 0 15.869-1.612 20.877-5.227l3.651-2.636.231 4.492c.072 1.421-.055 2.826-.401 4.421l-1.437 6.629 6.096-2.971c3.409-1.661 6.571-2.504 9.402-2.504.861 0 1.713.079 2.533.233l3.476.658-1.84 3.021c-3.584 5.893-8.476 10.382-13.205 14.723-8.188 7.51-15.259 13.998-16.778 26.726l-.212 1.752-1.728.359c-10.47 2.158-16.025 5.9-16.512 11.117-.825 8.882 12.777 21.611 25.032 26.636 15.86 6.512 34.2 12.611 48.937 17.509 5.582 1.856 10.855 3.607 15.376 5.18l2.369.824 1.423-2.069c.566-.824 1.136-1.624 1.695-2.417l2.418-3.401-3.017-1.839c-5.138-3.125-7.005-7.564-5.882-13.975l.294-1.683 1.679-.307a17.28 17.28 0 0 1 3.067-.293c3.81 0 6.242 1.544 8.195 2.785 1.981 1.26 3.311 2.033 5.578 2.033.251 0 .516-.014.787-.032l1.564-.112.9-1.289c5.33-7.654 8.843-17.024 12.564-26.941.344-.919.677-1.812 1.013-2.702l1.22-3.22-3.272-1.076c-5.304-1.739-5.888-4.425-5.761-6.82l.251-4.702 2.587-.089c8.991-.256 10.457-14.901 9.906-38.456l-.117-4.873-4.476 1.927c-1.681.722-3.627 1.493-5.511 1.493-1.727 0-4.823-.709-6.171-5.455l-.112-.389.023-.401c.395-7.711 6.527-9.344 11.939-10.786 1.568-.418 3.336-.89 4.738-1.507l1.659-.73.27-1.793c2.838-18.961 2.658-42.862-6.358-53.085l-3.992-4.527-1.644 5.808c-1.123 3.966-2.845 7.745-7.799 8.54l-1.198.193-.874-.833c-8.63-8.195-3.904-14.997.268-20.998 4.134-5.945 6.725-10.31 5.098-16.537l-.078-.292-.02-1.817-1.19-.974c-.456-.373-1.106-.775-1.629-1.098-2.378-1.469-5.625-3.474-5.214-8.747l.026-.225c3.038-22.32-10.038-39.101-22.681-55.329l-.254-.325c-1.972-2.537-3.84-4.934-5.641-7.367l-.791-1.069-1.314-.219c-1.827-.305-3.567-.46-5.174-.46-12.062 0-16.829 7.85-22.722 19.821-4.107 8.348-8.357 16.979-17.7 17.504l-4.418.251 2.135-3.877c2.177-3.959 3.909-8.289 5.744-12.873 4.801-12.013 10.769-26.949 27.05-30.146l9.692-1.903-8.896-4.293c-.695-.336-1.552-.71-2.773-1.213-1.902-.785-4.058-1.675-5.84-2.973l-.222-.161-.183-.208c-2.817-3.225-5.612-6.604-8.315-9.874l-.085-.102c-10.279-12.435-19.984-24.176-33.86-32.046l-8.345-4.735 3.681 8.862c1.735 4.177 3.475 9.499 1.479 13.635-.81 1.674-2.632 3.871-6.719 4.829l-2.345.548-.593-2.332c-6.549-25.772-25.988-38.253-53.162-49.065l-5.796-2.305 1.366 6.085c3.322 14.801 5.233 30.513-5.804 34.824l-1.837.718-1.093-1.64c-3.436-5.155-3.767-12.634-4.115-20.552-.321-7.325-.65-14.895-3.432-20.811l-.365-.784-.706-.5c-2.595-1.847-5.653-3.58-8.846-5.007l-1.68-.751-9.751 6.652c-3.393 2.316-6.91 4.543-10.315 6.698-22.216 14.056-41.396 26.19-39.144 61.848l.164 2.617-2.623-.012c-23.317 0-44.85 24.331-45.473 43.511-.33 10.201 4.515 22.701 29.466 24.325l1.88.123.365 1.849c1.905 9.668 8.49 14.755 15.462 20.139 3.534 2.727 7.184 5.542 10.249 9.02l2.646 2.999-3.873.995a21.445 21.445 0 0 1-5.333.677c-.634 0-1.288-.05-1.906-.103l-3.828-.321-.037-.266-1.88-.666c-8.786-3.106-16.214-11.396-19.385-21.632l-.62-2.005-2.081-.283c-21.356-2.912-33.33-15.44-32.844-34.375.398-15.551 9.391-32.724 22.909-43.751l2.958-2.413-2.82-2.571c-13.464-12.278-35.854-19.609-59.895-19.609-7.535 0-15.174.697-22.703 2.073l-2.591.473-.285-2.619c-.958-8.78-5.967-13.149-11.768-18.208-3.678-3.21-7.483-6.529-10.136-11.139l-2.908-5.049-1.376.498-1.028-.696c-4.25-2.867-9.347-4.321-15.152-4.321-17.587 0-39.068 13.47-50.353 26.143-1.982 2.398-2.05 4.944-2.122 7.64-.106 3.998-.228 8.528-6.863 11.199l-.707.285-.746-.167c-4.698-1.057-5.746-5.175-6.669-8.809-.229-.896-.542-2.123-.884-3.005l-1.311-3.372-3.234 1.623c-26.132 13.106-39.957 39.418-51.002 65.9l-1.015 2.435 2.155 1.522c.315.222.608.482.874.775 2.172 2.414 1.724 6.67 1.427 9.485l-.269 2.547-2.533-.379a28.735 28.735 0 0 0-4.209-.327c-6.131 0-10.75 2.168-14.123 6.625-5.455 7.212-6.737 20.489-3.188 33.04l.524 1.85-1.669.95c-11.404 6.48-18.715 23.677-19.559 45.999-.943 25.011 6.509 50.178 18.546 62.628l2.766 2.861 2.292-3.251c2.518-3.57 11.592-15.22 22.68-15.22 3.665 0 7.148 1.403 10.074 4.057l2.703 2.45-3.288 1.577a281.156 281.156 0 0 1-4.355 2.025c-13.915 6.377-22.378 11.287-22.587 25.668l-.021 1.445 1.05.994c11.806 11.174 37.575 18.683 64.125 18.683 19.025 0 35.107-3.85 44.123-10.564l.819-.609 1.012.153c3.659.557 6.566 1.946 9.131 3.172 2.925 1.397 5.68 2.717 9.479 2.929l2.431.138.932-2.534c1.121-3.175 2.58-6.253 7.042-6.253 1.098 0 2.292.2 3.653.615l1.821.556-.085 1.901c-1.408 31.154 9.2 48.836 32.432 54.054l1.816.407.104 1.852zm24.313-324.591c37.204 0 61.219 10.094 65.888 27.691l1.027 3.87 3.599-1.755c4.185-2.042 8.421-3.409 12.591-4.063l2.744-.428.038-2.778c.478-33.582 22.058-47 41.1-58.839l2.468-1.535-2.845-6.163c-1.103-2.388-3.511-3.832-6.061-5.36-1.064-.639-2.274-1.366-3.396-2.183l-1.193-.872-1.442.312c-8.001 1.734-15.05 2.542-22.19 2.542-6.736 0-12.596-.725-18.8-1.492-.792-.099-9.43-1.143-9.43-1.143l3.965 5.951c4.133 6.205 6.411 12.417 6.42 17.494.009 4.87-1.999 11.313-11.604 14.355l-1.533.485-1.057-1.214c-2.9-3.334-1.997-7.275-1.123-11.087.622-2.704 1.265-5.499.876-8.58l-.126-1.013-.678-.763c-11.062-12.446-29.255-15.058-42.571-15.058-23.496 0-47.637 7.617-62.395 14.746l-2.761 1.334 1.135 2.85c.893 2.238 1.618 4.599.876 6.709l-1.75 4.983 5.243-.621c.602-.072 1.24-.138 1.824-.138 10.709 0 19.232 10.987 23.276 20.395l.938 2.181 2.366-.2c4.759-.405 9.665-.613 14.581-.613zm87.1 347.005c-10.381-6.689-28.273-7.006-45.576-7.313-14.444-.257-29.373-.521-40.963-4.585-12.958-4.543-19.204-12.951-19.657-26.462l-.126-3.764 3.49 1.408c8.388 3.379 12.585 8.36 16.289 12.757 4.471 5.304 8.003 9.495 17.606 11.35 2.381.46 4.981.685 7.947.685 6.604 0 13.826-1.137 20.813-2.234 6.759-1.062 13.749-2.16 19.906-2.16 13.591 0 21.439 5.805 23.996 17.742l1.235 5.772-4.96-3.196zm242.456-46.464c-5.452-3.448-5.616-11.522-5.759-18.645-.137-6.752-.412-11.708-2.736-14.007l-.543-.535-.141-.749c-.448-2.354-2.366-3.407-4.795-4.738-3.686-2.021-8.276-4.534-7.346-12.188l.29-2.421 2.424.282c7.991.934 18.199 4.919 21.442 18.618l.711 3.001 3.042-.514c3.431-.582 6.519-.878 9.178-.878 6.319 0 10.918 1.634 13.669 4.855l.546.641.037.847a12.67 12.67 0 0 1-.072 2.061l-.455 3.813.453-.014-3.67 1.417c-.84.322-1.833.489-2.955.489-1.795 0-3.829-.402-5.984-.828-2.396-.472-4.864-.963-7.242-.986l-3.224-.037-.101 3.224c-.032.973-.006 2.028.017 2.961.098 4.222.222 9.463-3.635 13.869l-1.385 1.582-1.766-1.12zm-417.168-49.636c-5.919-14.573-19.686-21.288-34.259-28.396l-.112-.054c-3.924-1.917-7.972-3.895-11.822-6.027l-.786-.435-.897.025c-5.286.136-9.399 2.821-13.752 5.663-3.769 2.457-7.667 4.997-11.947 4.997-1.278 0-2.555-.227-3.793-.676l-2.039-.74.489-2.114c2.19-9.458 10.345-13.202 18.831-15.837l3.974-1.236-2.117-3.583c-1.075-1.82-2.156-3.688-3.261-5.596l-.179-.31c-12.3-21.268-25.017-43.258-50.163-43.258-.953 0-1.934.032-2.918.096l-1.213.079-.796-.911c-1.948-2.231-2.809-5.435-2.633-9.794l.084-2.079 2.066-.253a61.036 61.036 0 0 1 7.365-.466c27.568 0 39.852 21.375 50.689 40.233 6.738 11.719 13.1 22.789 22.456 29.351 4.108 2.887 7.847 3.824 12.176 4.906 4.67 1.171 9.964 2.498 15.41 6.799l1.583 1.25 1.831-.84c3.158-1.45 6.71-2.185 10.556-2.185 13.767 0 28.468 8.959 32.101 19.564l.882 2.571-2.649.614c-.993.226-1.999.342-2.991.342-5.032 0-9.661-2.906-14.138-5.718-3.343-2.099-6.5-4.081-10.116-5.378l-7.934-2.847 3.904 7.471c3.652 6.992 3.708 11.782.179 15.533l-2.619 2.781-1.442-3.542zm87.767-39.328c-2.832-1.954-5.572-4.133-7.989-6.058-9.457-7.518-17.623-14.011-33.179-14.011a59.73 59.73 0 0 0-5.702.284l-.94.091-.758-.562c-5.261-3.899-9.867-9.142-14.323-14.214-9.512-10.83-18.495-21.059-34.026-21.059-3.197 0-6.632.449-10.21 1.336l-5.01 1.242 2.204-4.667c1.975-4.182 6.639-9.168 17.643-9.168 8.916 0 18.531 3.229 24.058 5.992l1.076.539.232 1.181c3.519 17.854 18.849 23.028 36.601 29.021 9.924 3.35 20.183 6.813 27.862 12.948l1.909 1.526 2.012-1.386c10.992-7.562 28.649-10.184 45.726-12.719 32.192-4.786 51.537-9.097 48.763-28.57l-1.208-8.459 5.507 6.533c3.71 4.402 13.675 9.153 23.301 9.153 9.7 0 13.491-4.595 14.963-8.448l.986-2.584 2.445 1.29c4.483 2.361 9.181 3.558 13.962 3.558 14.724 0 27.434-11.368 28.934-25.883l.251-2.439 2.438.252c2.722.282 5.296.424 7.654.424 9.23 0 15.867-2.178 19.729-6.473 3.113-3.461 4.647-8.548 4.562-15.118l-.035-2.587-2.521-.579c-11.237-2.582-26.101-7.922-33.08-18.705-3.74-5.778-4.753-12.418-3.006-19.741l2.083-8.721 2.644 8.568c4.648 15.048 19.672 25.158 37.393 25.158 10.223 0 19.931-3.588 27.342-10.104l4.423-3.893-.359 5.883c-.786 12.829-11.8 16.093-20.65 18.717l-3.336.992.146 2.598c.644 11.411-1.771 20.284-7.178 26.375-5.576 6.278-14.401 9.69-26.233 10.141l-2.02.075-.846 1.835c-5.837 12.656-20.336 25.469-36.753 25.472-3.739 0-7.396-.69-10.865-2.053l-1.606-.628-1.53 1.027c-4.771 3.269-9.691 6.638-16.129 8.554l-.23.069-.227.02a53.612 53.612 0 0 1-5.069.251c-4.726 0-8.866-.732-12.311-2.178l-2.293-.965-1.554 1.946c-10.979 13.754-32.197 16.968-52.717 20.077-19.584 2.966-39.829 6.035-49.645 18.347l-1.425 1.787-1.886-1.29z"/><path d="M1152.488 201.35c-4.444 0-8.992-1.975-13.807-4.068-5.47-2.376-11.125-4.832-17.281-4.832-3.455 0-6.723.775-9.99 2.367l-4.857 2.366 1.421-5.214c2.054-7.534 8.183-11.856 16.822-11.856 12.571 0 28.853 8.916 32.26 17.668l1.051 2.697-2.833.592c-.891.187-1.829.28-2.786.28zM935.355 315.969c-5.445-3.111-9.682-9.863-14.168-17.011-7.408-11.806-15.069-24.012-29.26-25.102-.419-.03-.815-.046-1.203-.046-2.758 0-4.95.724-7.725 1.64-2.78.92-6.24 2.064-10.883 2.456l-2.239.189-.384-2.212c-4.142-23.875-17.329-34.995-41.496-34.995-3.244 0-6.726.213-10.352.634l-2.127.246-.53-2.074c-3.334-13.017-7.86-25.949-18.313-32.39l-.467-.288-.537-.12a17.42 17.42 0 0 0-3.875-.435c-3.552 0-6.476 1.009-9.572 2.078-2.479.856-5.042 1.742-7.535 1.742-1.85 0-3.565-.486-5.102-1.441l-2.235-1.391 1.547-2.131c5.061-6.969 12.288-10.806 20.35-10.806 8.587 0 17.473 4.135 24.379 11.345 5.377 5.611 8.901 12.604 9.926 19.691l.412 2.852 2.16-.022c.093-.001 1.488-.015 1.852-.015 10.871 0 19.414 1.626 26.122 4.972l1.585.789 1.531-.885c9.033-5.217 21.642-8.458 32.907-8.458 10.868 0 19.813 2.925 25.869 8.458l2.152 1.967-2.308 1.783c-2.942 2.271-7.221 2.535-10.184 2.537-3.446 0-7.305-.414-11.391-.852-4.375-.468-8.883-.953-13.113-.953-4.83 0-8.545.642-11.361 1.96l-3.528 1.651 2.218 3.204c.806 1.163 1.689 2.272 2.624 3.447 2.868 3.602 5.833 7.326 6.924 13.055l.587 3.089 3.114-.447a49.316 49.316 0 0 1 6.947-.506c30.332 0 47.692 29.448 50.332 50.358l.616 4.87-4.266-2.433zm65.755 152.655c-5.976-10.293-19.54-17.209-33.752-17.209a46.37 46.37 0 0 0-13.899 2.153l-3 .942-.182-3.138c-.785-13.561-5.909-36.309-31.408-36.309-1.37 0-2.814.071-4.291.211-3.2.313-5.451 1.876-7.63 3.386-2.381 1.656-5.077 3.528-8.775 3.528-1.572 0-3.181-.324-4.919-.992l-2.731-1.047 1.508-2.505c5.819-9.662 15.353-14.983 26.847-14.983 11.486 0 23.369 5.263 31.786 14.076 5.634 5.898 9.178 12.917 10.25 20.295l.447 3.068 3.087-.261a50.03 50.03 0 0 1 4.14-.171c12.384 0 25.283 4.815 35.391 13.212l1.592 1.322 1.881-.862c6.562-3.006 15.298-4.73 23.971-4.73 16.603 0 28.096 6.037 30.748 16.146l1.203 4.588-4.437-1.67c-12.172-4.58-23.36-7.004-32.356-7.004-9.733 0-16.955 2.785-21.459 8.277l-2.239 2.734-1.773-3.057z"/></svg>