<svg xmlns="http://www.w3.org/2000/svg" width="2000" height="800"><path d="M899.459 643.733c-31.503-21.77-22.257-36.958-21.906-37.506.118-.17.227-.344.326-.526l112.78-205.576a5.616 5.616 0 0 0 .278-4.819 5.614 5.614 0 0 0-3.561-3.258c-2.115-.647-4.395-.963-6.97-.963-3.439 0-6.88.566-10.203 1.111-3.102.509-6.029.989-8.713.989-2.315 0-4.109-.356-5.642-1.122a5.631 5.631 0 0 0-1.884-.559c1.381-5.018 2.679-10.641 2.839-15.9.367-12.087-5.882-15.805-9.737-16.945-2.032-.664-4.204-1.001-6.455-1.001-5.696 0-11.137 2.094-16.396 4.119-2.724 1.048-5.298 2.039-7.835 2.725a5.62 5.62 0 0 0-3.458 2.722L804.26 565.298c-.085.16-.122.225-.191.39-.159.33-4.004 8.051-17.769 8.051-7.246 0-15.914-2.102-25.765-6.253-4.905-2.065-9.731-3.114-14.34-3.114-19.406 0-28.356 17.815-29.534 20.356-17.13 31.454-5.556 71.001 25.864 88.246 4.672 2.564 10.012 3.811 16.319 3.811 4.146 0 8.218-.51 12.159-1.006 3.665-.458 7.125-.892 10.379-.892 3.929 0 6.947.652 9.503 2.056 5.419 2.974 8.311 9.077 11.655 16.143 3.846 8.123 8.205 17.331 17.661 22.519 9.586 5.262 20.397 8.042 31.268 8.043h.004a65.17 65.17 0 0 0 57.023-33.6c6.365-9.648 12.509-31.426-9.037-46.315zm-.437 40.255a4.618 4.618 0 0 0-.265.437 53.93 53.93 0 0 1-47.29 27.983c-8.984-.001-17.925-2.302-25.856-6.655-6.266-3.438-9.495-10.256-12.91-17.475-3.835-8.093-7.797-16.461-16.408-21.188-4.222-2.315-9.098-3.442-14.911-3.442-3.955 0-7.932.5-11.775.981-3.764.472-7.319.916-10.761.916-4.43 0-7.898-.769-10.912-2.421-12.619-6.928-21.785-18.354-25.812-32.175a55.02 55.02 0 0 1-1.401-6.158l14.41 7.685a5.619 5.619 0 0 0 7.604-2.315 5.624 5.624 0 0 0-2.314-7.605l-19.838-10.579c-.151-.081-.313-.127-.468-.192a53.269 53.269 0 0 1 2.708-13.192l57.227 31.214a5.621 5.621 0 0 0 7.625-2.243 5.619 5.619 0 0 0-2.241-7.624l-57.991-31.633c1.838-3.389 7.876-12.692 18.753-12.692 3.102 0 6.458.752 9.978 2.234 11.237 4.734 21.375 7.132 30.128 7.132 19.829 0 26.74-12.076 27.883-14.397l9.991-18.21 30.108 15.056a5.617 5.617 0 0 0 7.541-2.512 5.619 5.619 0 0 0-2.512-7.541l-29.725-14.863 12.238-22.309 13.341 6.67a5.589 5.589 0 0 0 2.509.597 5.622 5.622 0 0 0 2.518-10.649l-12.958-6.479 74.435-135.683c2.258-.722 4.449-1.567 6.588-2.39 4.5-1.732 8.752-3.369 12.359-3.369 1.098 0 2.082.151 3.012.46.076.027.154.051.232.073.729.209 4.096 2.188-1.188 20.729-.891 2.801-.473 5.6 1.183 7.898 2.144 2.973 5.667 4.135 7.928 4.504 2.865 1.251 6.056 1.861 9.713 1.861 3.599 0 7.124-.576 10.531-1.137 1.533-.252 3.022-.499 4.447-.676L868.131 600.105c-1.034 1.623-4.58 8.07-2.852 17.731 2.158 12.071 11.508 23.894 27.79 35.146 17.634 12.185 7.188 29.136 5.953 31.006zm375.813-519.489c-7.16-8.066-17.104-10.272-25.876-12.216-7.634-1.693-14.229-3.154-18.333-7.78-4.104-4.622-4.773-11.341-5.55-19.122-.893-8.942-1.901-19.08-9.064-27.147a65.161 65.161 0 0 0-48.699-21.88 65.059 65.059 0 0 0-43.045 16.269c-9.241 6.946-22.35 25.389-7.062 46.656 22.351 31.092 8.534 42.29 8.021 42.687-.168.119-.33.249-.484.386L975.638 314.759a5.624 5.624 0 0 0-1.6 5.991 5.623 5.623 0 0 0 4.89 3.814c1.468.115 3.076.172 4.921.172 1.508 0 3.022-.037 4.528-.074 1.399-.034 2.789-.069 4.161-.069 4.209 0 8.491.303 11.292 2.498l.097.073.037.027c.021.015.04.031.061.045 1.31.937.534 3.817-.347 6.068-1.705 4.355-5.024 9.255-7.742 13.057-1.779 2.338-2.328 5.116-1.539 7.834 1.02 3.519 3.946 5.801 5.95 6.91 5.351 5.035 12.491 6.334 18.826 7.487 4.562.831 8.87 1.615 11.522 3.59a5.599 5.599 0 0 0 3.355 1.112 5.609 5.609 0 0 0 3.732-1.418l142.706-126.725c.135-.119.191-.169.313-.301.139-.138 3.468-3.368 10.187-3.368 6.209 0 16.7 2.828 31.418 16.308 6.864 6.286 14.366 9.474 22.295 9.474h.002c13.436 0 23.234-9.354 24.815-10.959 12.915-11.537 20.593-27.404 21.62-44.7 1.039-17.365-4.752-34.094-16.303-47.106zm-6.449 76.68l-43.399-48.636a5.621 5.621 0 0 0-8.387 7.486l43.97 49.273c-2.293 2.025-8.411 6.726-15.86 6.724-5.031-.002-9.979-2.196-14.705-6.524-13.955-12.779-27.077-19.259-39.008-19.259-10.732 0-16.734 5.267-18.104 6.631l-15.495 13.759-23.295-24.301a5.622 5.622 0 0 0-7.947-.168 5.622 5.622 0 0 0-.168 7.947l22.999 23.993-24.658 21.895-13.313-13.666a5.621 5.621 0 0 0-8.052 7.845l12.952 13.292-82.567 73.321c-3.83-1.739-8.043-2.507-12.157-3.256-5.436-.991-10.572-1.926-13.472-4.952a5.631 5.631 0 0 0-1.586-1.158c2.987-4.261 6.101-9.12 8.02-14.021 2.435-6.217 2.104-10.701.782-13.878l67.09-57.578a5.621 5.621 0 0 0-7.321-8.53L1006.7 315.78c-4.052-1.845-8.462-2.326-12.559-2.411l137.911-122.468c1.519-1.183 7.026-6.063 8.646-15.741 2.024-12.094-2.806-26.374-14.357-42.444-12.513-17.405 3.024-29.857 4.815-31.204a4.79 4.79 0 0 0 .396-.322 53.814 53.814 0 0 1 35.762-13.596 53.911 53.911 0 0 1 40.293 18.102c4.745 5.345 5.493 12.853 6.286 20.801.888 8.911 1.807 18.125 8.327 25.47 6.522 7.349 15.563 9.353 24.307 11.292 7.795 1.728 15.16 3.361 19.902 8.703 9.558 10.766 14.348 24.609 13.494 38.979a54.715 54.715 0 0 1-.75 6.271l-10.986-12.082a5.619 5.619 0 0 0-7.939-.376 5.62 5.62 0 0 0-.378 7.94l15.127 16.633c.116.128.253.222.38.336a53.34 53.34 0 0 1-6.991 11.516zm-408.387 19.623l46.287 18.515a5.59 5.59 0 0 0 2.087.404 5.62 5.62 0 0 0 2.088-10.839l-46.286-18.515a5.618 5.618 0 0 0-7.305 3.13 5.618 5.618 0 0 0 3.129 7.305zm99.947-18.113a5.62 5.62 0 0 0 5.613-6.003l-3.966-58.189a5.62 5.62 0 1 0-11.216.764l3.967 58.189a5.619 5.619 0 0 0 5.602 5.239zm-66.931-26.467a5.617 5.617 0 0 0 7.736 1.822 5.62 5.62 0 0 0 1.823-7.737l-17.194-27.773a5.62 5.62 0 1 0-9.557 5.917l17.192 27.771zm-73.256 134.911c.223 0 .449-.013.678-.041l66.124-7.936a5.62 5.62 0 0 0 4.911-6.25 5.618 5.618 0 0 0-6.251-4.91l-66.124 7.935a5.62 5.62 0 0 0-4.91 6.25 5.62 5.62 0 0 0 5.572 4.952zm207.585 70.358a5.621 5.621 0 0 0-10.47 4.096l11.902 30.416a5.624 5.624 0 0 0 5.236 3.575 5.621 5.621 0 0 0 5.234-7.67l-11.902-30.417zm98.237-30.042a5.604 5.604 0 0 0-5.96-5.259l-63.479 3.967a5.622 5.622 0 0 0 .7 11.22l63.479-3.968a5.618 5.618 0 0 0 5.26-5.96zm-23.596 59.136a5.621 5.621 0 0 0-8.993 6.746l23.805 31.738a5.616 5.616 0 0 0 7.869 1.123 5.619 5.619 0 0 0 1.123-7.867l-23.804-31.74zm-106.034 5.923a5.62 5.62 0 0 0-6.998 3.769l-11.903 39.676a5.623 5.623 0 0 0 5.387 7.236 5.622 5.622 0 0 0 5.381-4.007l11.901-39.676a5.62 5.62 0 0 0-3.768-6.998z"/></svg>