<svg xmlns="http://www.w3.org/2000/svg" width="2000" height="800"><path d="M820.925 256.131c-3.506-9.448-15.504-44.815-15.504-44.815-13.875-42.377-25.692-83.582-25.901-84.318a7.328 7.328 0 0 0-14.089 4.026c1.557 5.45 38.4 133.924 59.274 170.731 2.631 4.636 8.676 14.766 18.021 27.486 5.886 30.122 27.311 159.48-28.084 200.674-68.997 51.31-243.896 96.583-245.653 97.032a7.327 7.327 0 0 0 3.64 14.195c7.295-1.872 179.447-46.44 250.758-99.468 54.663-40.645 44.663-143.727 36.757-190.685 7.64 8.757 16.44 17.9 26.375 26.811 36.328 32.581 74.625 50.5 113.829 53.264a6.812 6.812 0 0 0 1.031 0c39.201-2.764 77.502-20.686 113.83-53.264 9.027-8.099 17.115-16.388 24.248-24.406-7.822 47.992-16.586 148.317 37.158 188.28 38.418 28.568 106.099 54.675 161.508 72.979h-64.648a7.328 7.328 0 0 0-7.328 7.325 7.327 7.327 0 0 0 7.328 7.327h111.529c23.854 7.048 40.229 11.286 42.371 11.835a7.326 7.326 0 0 0 3.638-14.193c-1.759-.449-176.657-45.723-245.656-97.032-53.849-40.039-34.935-163.407-28.396-197.935 10.506-13.999 17.238-25.261 20.053-30.226 20.877-36.808 57.72-165.281 59.275-170.731a7.323 7.323 0 0 0-5.03-9.056c-3.884-1.111-7.942 1.14-9.057 5.03-.276.971-20.746 72.358-39.509 123.963h-30.832a7.326 7.326 0 1 0 0 14.651h25.336c-4.691 12.057-9.125 22.213-12.926 28.917-24.164 42.604-85.722 116.103-163.41 121.884-77.688-5.781-139.245-79.28-163.408-121.884-3.244-5.72-6.95-13.961-10.883-23.745l-5.645-14.652z"/><path d="M1103.949 397.215c-4.044-.398-7.602 2.572-7.985 6.601-3.772 39.748-3.593 94.952 18.675 132.214a7.32 7.32 0 0 0 10.045 2.529 7.323 7.323 0 0 0 2.529-10.045c-20.229-33.855-20.229-85.746-16.664-123.314a7.325 7.325 0 0 0-6.6-7.985zm-226.91 141.344a7.319 7.319 0 0 0 10.045-2.529c22.269-37.262 22.446-92.464 18.673-132.214-.384-4.029-3.958-6.991-7.984-6.601a7.326 7.326 0 0 0-6.602 7.984c3.566 37.568 3.568 89.459-16.665 123.314a7.327 7.327 0 0 0 2.533 10.046zm318.574 90.687c-11.884 1.44-116.787 14.7-140.258 36.362a7.326 7.326 0 0 0 9.941 10.766c15.158-13.993 87.293-27.151 132.082-32.583a7.325 7.325 0 1 0-1.765-14.545zm-391.232 0c-3.998-.481-7.666 2.373-8.153 6.391a7.325 7.325 0 0 0 6.393 8.153c30.989 3.756 115.125 16.932 132.081 32.582a7.3 7.3 0 0 0 4.968 1.943 7.325 7.325 0 0 0 4.97-12.709c-23.47-21.66-128.373-34.919-140.259-36.36z"/></svg>