<svg xmlns="http://www.w3.org/2000/svg" width="2000" height="800"><path d="M1208.465 252.325c-.195 0-.39-.01-.589-.032-94.899-10.544-105.116-24.546-114.997-38.086-.473-.653-.952-1.306-1.438-1.958-8.317-11.09-19.157-16.041-26.787-18.241l-1.128-.325-.143 1.166c-2.797 22.984-8.684 34.158-17.997 34.158-3.447 0-5.976-1.708-7.175-2.727-27.146-18.733-81.704-19.139-121.542-19.436-23.259-.172-41.617-.308-51.45-3.585-10.812-3.604-17.628-6.869-20.476-12.895-3.158-6.683-.369-13.956 4.253-26.003 1.188-3.097 2.668-6.95 4.224-11.305 7.897-22.117 12.374-40.443 17.113-59.845 1.73-7.087 3.512-14.375 5.518-22.109 7.243-27.942 24.424-30.113 29.518-30.113 1.359 0 2.253.132 2.574.188a5.37 5.37 0 0 1 1.065.305c65.466 26.398 182.45 31.02 183.624 31.064a5.342 5.342 0 0 1 4.197 2.317 5.332 5.332 0 0 1 .627 4.752l-13.742 39.263.93.337c6.729 2.438 18.151 3.111 28.23 3.705 9.199.543 18.711 1.105 26.322 2.896 3.924.923 7.011 3.382 8.925 7.11 6.879 13.389-3.157 43.098-7.792 55.249l-.28.735.648.445c24.095 16.573 76.107 18.711 76.631 18.731a5.29 5.29 0 0 1 4.067 2.134 5.29 5.29 0 0 1 .887 4.505l-8.675 33.614a5.311 5.311 0 0 1-5.142 3.986zm-149.641-70.269c.165 0 .33.008.495.023.997.093 24.686 2.537 40.625 23.791.466.621.922 1.244 1.379 1.868l.149.204c7.947 10.894 16.956 23.243 102.129 33.163l.865.101 5.906-22.886-1.187-.094c-17.114-1.351-59.073-6.354-79.018-23.579a5.313 5.313 0 0 1-1.441-6.046c6.196-15.068 14.374-42.19 9.937-50.823-.567-1.103-1.17-1.444-1.9-1.616-6.723-1.581-15.768-2.115-24.515-2.631-15.614-.921-30.362-1.791-38.311-8.151a5.321 5.321 0 0 1-1.697-5.907l3.849-10.996-1.346-.058c-4.913-.209-121.084-5.444-188.007-32.407l-1.06-.427-.283 1.106c-1.659 6.486-3.185 12.708-4.731 19.042l-.401 1.643c-.617 2.518-1.229 5.021-1.848 7.519l-.307 1.24h22.655a5.322 5.322 0 0 1 5.316 5.316 5.322 5.322 0 0 1-5.316 5.316h-25.358l-.196.746c-2.961 11.291-5.842 21.045-9.065 30.698l-.44 1.317h103.406a5.323 5.323 0 0 1 5.317 5.316 5.323 5.323 0 0 1-5.317 5.316H861.951l-.242.652a698.086 698.086 0 0 1-2.784 7.354c-3.693 9.63-5.727 15.199-4.567 17.654.628 1.33 2.785 3.54 14.225 7.352 8.236 2.746 26.733 2.882 48.15 3.041 43.712.324 98.112.728 127.793 21.503.119.083.192.132.257.172l.721.44.555-.636c1.569-1.8 5.438-8.405 7.473-30.8a5.284 5.284 0 0 1 1.896-3.606 5.312 5.312 0 0 1 3.396-1.23zM905.368 51.62c-2.306 0-10.271.933-15.964 12.931l-.46.969.999.391c62.394 24.425 176.303 31.281 189.086 31.982l.75.041 5.282-15.095-1.33-.072c-27.085-1.468-119.954-8.047-177.824-31.074l-.165-.065-.374-.008zm-53.21 349.433c-2.819 0-5.188-.163-7.239-.5-11.248-1.837-18.497-3.976-22.269-9.473-4.18-6.091-2.584-13.711.059-26.337.683-3.258 1.529-7.298 2.374-11.845 4.272-23.062 5.775-41.857 7.367-61.756.551-6.887 1.17-14.647 1.932-22.755 3.227-34.258 25.865-34.652 26.827-34.652.406 0 .819.045 1.193.132 21.696 4.93 50.169 7.43 84.63 7.43 52.687-.001 101.12-5.921 101.604-5.981a5.34 5.34 0 0 1 4.511 1.618 5.334 5.334 0 0 1 1.373 4.591l-7.316 40.934.973.184c2.187.412 4.931.621 8.157.621 6.07 0 13.297-.731 20.285-1.438 7.282-.737 14.799-1.497 21.441-1.497 1.785 0 3.475.056 5.021.166 4.019.286 7.455 2.222 9.94 5.598 8.919 12.121 3.741 43.045 1.101 55.778l-.16.771.713.336c10.953 5.162 28.071 7.89 49.504 7.89 16.047-.002 28.999-1.571 29.128-1.586a5.266 5.266 0 0 1 4.353 1.463 5.295 5.295 0 0 1 1.595 4.312l-3.215 34.566c-.244 2.617-2.407 4.689-5.032 4.818-14.004.688-26.751 1.036-37.888 1.036-61.159 0-71.602-10.341-81.7-20.341l-.093-.091c-.545-.541-1.09-1.08-1.644-1.612-9.977-9.625-21.471-12.783-29.355-13.738l-1.162-.141.043 1.17c.834 22.943-3.109 29.927-6.149 33.184-2.153 2.307-4.855 3.527-7.812 3.527-2.737 0-4.869-1.057-5.896-1.687l-.093-.051c-11.033-5.246-25.933-7.796-45.551-7.796-25.284 0-52.986 4.252-77.428 8.004-17.974 2.763-33.483 5.148-44.122 5.148zm-18.151-38.423a817.054 817.054 0 0 1-.77 3.708l-.117.565c-2.115 10.104-3.234 15.919-1.7 18.156.832 1.214 3.315 3.054 15.212 4.995 1.47.238 3.328.359 5.526.359 9.798 0 24.942-2.325 42.479-5.017 24.823-3.814 52.943-8.135 79.071-8.135 21.457 0 37.986 2.953 50.53 9.026l.992.453.519-.721c1.262-2.029 4.028-9.17 2.475-31.596-.199-2.912 2.023-5.456 4.954-5.671.008-.001.63-.046 1.741-.046 5.738 0 25.735 1.231 42.148 17.067.618.596 1.225 1.196 1.833 1.799 8.573 8.488 17.437 17.264 74.221 17.264 9.464 0 20.193-.259 31.89-.771l.871-.038 2.186-23.538-1.186.095c-5.215.417-13.387.915-22.706.917-26.69 0-46.561-3.907-59.059-11.613a5.314 5.314 0 0 1-2.384-5.741c3.719-15.864 7.476-43.943 1.723-51.757-.729-.994-1.378-1.236-2.128-1.294a60.538 60.538 0 0 0-4.271-.139c-6.098 0-13.34.732-20.345 1.44l-.117.012c-7.219.729-14.685 1.483-21.263 1.483-7.957 0-13.598-1.095-17.751-3.444a5.325 5.325 0 0 1-2.614-5.564l1.283-7.177h-69.248c-2.932 0-5.316-2.385-5.316-5.316s2.385-5.316 5.316-5.316h71.146l3.648-20.413-1.321.138c-14.794 1.541-53.606 5.125-94.388 5.125-34.831 0-63.814-2.522-86.169-7.498l-.173-.039-.177.023c-2.24.3-13.524 2.911-15.601 24.965-.737 7.827-1.33 15.223-1.902 22.375l-.016.191c-.88 10.989-1.711 21.369-2.981 32.442l-.128 1.114h64.126a5.321 5.321 0 0 1 5.315 5.316 5.322 5.322 0 0 1-5.315 5.317h-65.492l-.122.859a434.31 434.31 0 0 1-2.201 13.861l-.23 1.319 1.547-.182c.118-.016.235-.036.357-.036h94.802c2.932 0 5.316 2.385 5.316 5.316s-2.385 5.316-5.316 5.316h-94.802c-.835 0-1.667-.216-2.474-.644l-1.18-.625-.264 1.315zm-5.702 219.502c-2.807 0-5.175-.163-7.237-.5-11.247-1.836-18.497-3.976-22.269-9.474-4.179-6.093-2.583-13.716.061-26.347.739-3.536 1.557-7.443 2.37-11.835 4.277-23.077 5.782-41.886 7.375-61.798.547-6.854 1.168-14.624 1.928-22.714 3.225-34.259 25.865-34.652 26.827-34.652.398 0 .813.046 1.196.134 21.692 4.929 50.184 7.428 84.685 7.428 51.835 0 99.531-5.736 101.537-5.98a5.356 5.356 0 0 1 4.518 1.618 5.333 5.333 0 0 1 1.373 4.591l-7.317 40.938.975.183c2.187.411 4.931.619 8.155.619 6.105 0 13.32-.731 20.297-1.439 7.32-.739 14.811-1.495 21.428-1.495 1.775 0 3.466.056 5.024.166 4.018.286 7.455 2.223 9.939 5.599 8.918 12.12 3.739 43.045 1.099 55.778l-.16.771.713.336c10.954 5.162 28.073 7.891 49.505 7.891 16.181 0 29.014-1.57 29.136-1.587a5.29 5.29 0 0 1 4.352 1.467 5.299 5.299 0 0 1 1.592 4.308l-3.216 34.565c-.244 2.618-2.407 4.689-5.032 4.817-13.985.688-26.732 1.036-37.886 1.036-61.163 0-71.605-10.341-81.704-20.342l-.265-.261c-.487-.481-.975-.964-1.469-1.44-9.974-9.622-21.471-12.781-29.358-13.738l-1.162-.141.043 1.17c.835 22.943-3.107 29.927-6.146 33.183-2.155 2.309-4.856 3.529-7.813 3.529-2.737 0-4.869-1.057-5.896-1.687l-.093-.051c-11.035-5.248-25.935-7.799-45.55-7.799-25.279 0-52.977 4.253-77.414 8.005-17.997 2.764-33.509 5.148-44.141 5.148zm-17.334-42.505c-.597 3.045-1.179 5.827-1.708 8.357-2.113 10.097-3.233 15.918-1.699 18.156.832 1.212 3.313 3.049 15.215 4.995 1.467.237 3.324.358 5.523.358 9.812 0 24.957-2.326 42.495-5.021 24.815-3.812 52.943-8.131 79.059-8.131 21.455 0 37.983 2.952 50.528 9.026.16.075.224.104.283.129l.782.319.446-.717c1.262-2.029 4.029-9.171 2.475-31.596-.202-2.911 2.021-5.455 4.953-5.672.02-.001.637-.044 1.743-.044 5.738 0 25.737 1.23 42.147 17.066.618.597 1.225 1.197 1.833 1.801 8.575 8.487 17.439 17.263 74.223 17.263 9.461 0 20.19-.259 31.89-.771l.871-.038 2.184-23.539-1.186.095c-5.205.419-13.37.917-22.705.917-26.689 0-46.561-3.907-59.06-11.613a5.312 5.312 0 0 1-2.386-5.74c3.72-15.862 7.477-43.939 1.724-51.756-.735-.998-1.385-1.238-2.134-1.292a59.847 59.847 0 0 0-4.268-.141c-6.14 0-13.366.734-20.354 1.443-7.286.736-14.771 1.492-21.369 1.492-7.957 0-13.598-1.095-17.751-3.444a5.325 5.325 0 0 1-2.613-5.563l1.473-8.237-1.357.181c-14.163 1.881-64.366 8.018-115.722 8.018-30.026 0-55.288-2.116-75.083-6.29l-1.106-.233-.096 1.127c-.27 3.167-.521 6.271-.769 9.326l-.088 1.08 1.079.069h26.303c2.932 0 5.317 2.385 5.317 5.316s-2.386 5.316-5.317 5.316h-28.245l-.076.917c-1.298 15.625-2.687 29.214-5.241 44.748l-.191 1.162h90.021c2.932 0 5.316 2.385 5.316 5.316s-2.385 5.317-5.316 5.317h-89.289c-.456 0-.929-.077-1.488-.242l-1.054-.312-.212 1.082zm25.749-114.135c-2.082.279-12.604 2.669-15.293 22.331l-.125.915.902.197c19.033 4.169 43.835 6.283 73.718 6.283 58.687 0 117.606-8.214 118.194-8.297.132-.02.257-.017.382-.018l1.028-.022 3.42-19.138-1.321.137c-18.395 1.914-55.116 5.125-94.388 5.125-34.833 0-63.824-2.522-86.167-7.499l-.174-.038-.176.024zm-27.1 333.521c-2.812 0-5.18-.163-7.239-.5-11.246-1.837-18.495-3.976-22.267-9.474-4.182-6.094-2.585-13.718.061-26.349l.022-.106c.72-3.442 1.535-7.344 2.348-11.728 4.275-23.074 5.78-41.881 7.372-61.791l.021-.264c.574-7.168 1.167-14.58 1.908-22.457 3.225-34.258 25.865-34.651 26.827-34.651a5.5 5.5 0 0 1 1.198.134c21.689 4.929 50.168 7.428 84.642 7.428 51.777 0 99.563-5.735 101.571-5.979a5.335 5.335 0 0 1 4.523 1.618 5.325 5.325 0 0 1 1.375 4.59l-7.315 40.935.973.184c2.184.412 4.928.621 8.156.621 6.097 0 13.316-.731 20.297-1.438 7.314-.739 14.809-1.497 21.426-1.497 1.769 0 3.459.057 5.024.167 4.018.286 7.455 2.223 9.939 5.599 8.916 12.118 3.739 43.044 1.1 55.778l-.159.771.713.336c10.954 5.162 28.073 7.891 49.504 7.891 15.999 0 29.014-1.57 29.136-1.587a5.318 5.318 0 0 1 5.944 5.773l-3.215 34.565c-.244 2.618-2.407 4.689-5.032 4.818-13.986.688-26.733 1.036-37.887 1.036-61.163 0-71.605-10.342-81.703-20.343-.575-.569-1.149-1.138-1.734-1.701-9.974-9.624-21.47-12.782-29.357-13.738l-1.162-.141.043 1.17c.836 22.946-3.108 29.929-6.148 33.185-2.155 2.309-4.856 3.529-7.812 3.529-2.736 0-4.868-1.057-5.896-1.687l-.093-.051c-11.035-5.248-25.935-7.799-45.55-7.799-25.28 0-52.977 4.253-77.412 8.005-17.997 2.764-33.512 5.148-44.142 5.148zm-9.884-99.574c-1.235 14.869-2.876 32.481-6.743 53.351-.849 4.582-1.683 8.563-2.418 12.075-2.113 10.098-3.234 15.919-1.698 18.156.831 1.212 3.312 3.049 15.212 4.995 1.469.237 3.327.358 5.525.358 9.813 0 24.957-2.326 42.493-5.021 24.817-3.812 52.946-8.131 79.061-8.131 21.455 0 37.983 2.952 50.528 9.026l.255.118.796.354.46-.739c1.262-2.029 4.028-9.171 2.476-31.598-.2-2.91 2.022-5.455 4.955-5.673.019-.001.635-.044 1.739-.044 5.738 0 25.736 1.23 42.149 17.067.586.564 1.16 1.133 1.737 1.703l.097.096c8.571 8.488 17.436 17.266 74.222 17.266 9.462 0 20.19-.259 31.889-.771l.871-.038 2.186-23.541-1.186.095c-5.205.419-13.37.917-22.704.917-26.691 0-46.562-3.907-59.061-11.613a5.312 5.312 0 0 1-2.385-5.74c3.722-15.861 7.479-43.938 1.723-51.757-.732-.996-1.382-1.237-2.132-1.293a60.738 60.738 0 0 0-4.27-.14c-6.129 0-13.36.733-20.354 1.442-7.267.735-14.762 1.493-21.368 1.493-7.959 0-13.6-1.095-17.752-3.444a5.324 5.324 0 0 1-2.613-5.563l2.482-13.89-1.345.165c-5.078.623-51.097 6.091-102.379 6.091-35.325 0-64.702-2.606-87.314-7.746a5.21 5.21 0 0 1-1.074-.375l-1.288-.605-.133 1.418a1454.89 1454.89 0 0 0-1.616 18.904l-.086 1.08h27.385c2.932 0 5.316 2.385 5.316 5.316s-2.385 5.316-5.316 5.316h-28.246l-.076.92zm6.421-42.449c.396 0 .747.035 1.07.108 21.616 4.914 50.586 7.405 86.104 7.404 48.904-.001 94.938-4.772 103.67-5.729l.743-.082 2.517-14.064-1.322.137c-18.394 1.914-55.113 5.125-94.388 5.125-34.836 0-63.82-2.522-86.169-7.499l-.175-.038-.176.023c-2.086.28-9.201 2.067-13.188 13.288l-.496 1.397 1.481-.063c.11-.005.219-.007.329-.007z"/></svg>