<svg xmlns="http://www.w3.org/2000/svg" width="2000" height="800"><path d="M1217.183 251.642h-40.776c-3.235-8.122-11.161-13.887-20.422-13.887h-20.06c-12.123 0-21.987 9.864-21.987 21.988v144.535a203.443 203.443 0 0 0-18.492-11.209V270.461c0-44.329-36.063-80.393-80.392-80.393s-80.394 36.065-80.394 80.393v108.87c-32.695 10.853-62.36 29.924-85.983 55.528l-32.438.002c-30.553 0-55.41 24.923-55.41 55.558l.002 195.937c0 30.552 24.858 55.408 55.412 55.408 16.587 0 31.918-7.264 42.375-19.73C895.279 756.706 944.717 778 999.04 778c112.773 0 204.522-91.748 204.522-204.522 0-35.729-9.304-69.675-25.78-99.284.115-.487.192-.992.192-1.515V300.245h39.211c12.124 0 21.989-9.864 21.989-21.988v-4.629c-.002-12.122-9.867-21.986-21.991-21.986zm-269.408 18.821c0-37.096 30.181-67.277 67.278-67.277 37.096 0 67.275 30.182 67.275 67.277V386.64a202.856 202.856 0 0 0-37.706-12.559l12.062-67.368c3.949-22.062-10.783-43.224-32.844-47.173-2.379-.425-4.8-.64-7.198-.64-19.689 0-36.5 14.083-39.976 33.488l-14.296 79.857a202.901 202.901 0 0 0-14.598 3.218v-105h.003zm61.359 227.427c-2.355 13.146-13.732 22.687-27.053 22.687-1.629 0-3.274-.146-4.896-.438-7.239-1.296-13.54-5.332-17.742-11.367-4.202-6.033-5.8-13.341-4.504-20.578L989.578 294.7c2.353-13.143 13.737-22.684 27.065-22.684 1.627 0 3.271.147 4.889.437 14.939 2.674 24.916 17.007 22.241 31.952l-34.639 193.485zm-60.454 18.377c6.205 8.908 15.505 14.868 26.193 16.782a41.04 41.04 0 0 0 7.208.643c19.68 0 36.486-14.083 39.962-33.49l14.471-80.828c70.56 17.085 121.099 80.844 121.099 154.105 0 87.438-71.137 158.575-158.578 158.575-87.44 0-158.576-71.135-158.576-158.575 0-70.935 46.021-132.017 113.083-151.927l-11.516 64.328c-1.911 10.685.452 21.477 6.654 30.387zM793.214 721.805c-11.586-7.554-19.268-20.616-19.268-35.447l-.001-195.938c0-23.402 18.973-42.44 42.293-42.44l21.316-.003a204.507 204.507 0 0 0-43.042 125.501c0 53.719 20.828 102.657 54.822 139.191-7.988 10.08-20.031 15.98-33.093 15.98-3.413 0-4.917-.12-9.912-1.185-4.993-1.066-13.115-5.659-13.115-5.659zm205.824 43.08c-105.544 0-191.409-85.865-191.409-191.407 0-91.711 63.492-169.091 152.264-187.397l-3.789 21.158c-35.528 9.165-67.657 29.83-90.831 58.594-24.459 30.354-37.929 68.583-37.929 107.646 0 94.67 77.021 171.692 171.692 171.692 94.67 0 171.693-77.022 171.693-171.692 0-79.587-55.097-148.802-131.901-167.023l3.482-19.448c86.228 19.908 148.137 97.275 148.137 186.471-.003 105.541-85.868 191.406-191.409 191.406zM1127.053 414V259.742c0-4.894 3.981-8.873 8.872-8.873h20.061c4.891 0 8.872 3.979 8.872 8.873v194.113A205.88 205.88 0 0 0 1127.053 414zm99.004-135.742c0 4.892-3.981 8.873-8.874 8.873h-39.211v-22.374h39.211c4.893 0 8.874 3.979 8.874 8.873v4.628zm-126.116-170.647c1.915-23.048-3.803-42.448-16.996-57.66-16.411-18.92-40.804-26.756-58.161-27.779-27.312-1.61-51.272 8.112-68.908 27.958-6.067 6.829-13.703 17.052-10.001 26.962 1.092 2.921 3.031 5.476 5.886 7.709-8.464 15.656-10.265 32.839-5.302 51.169 8.727 32.212 38.008 53.469 69.887 53.469 6.249 0 12.592-.814 18.905-2.525 17.768-4.813 31.316-13.572 40.302-26.022 3.554-3.149 21.678-20.704 24.388-53.281zM961.727 90.043c6.23 2.29 14.293 4.056 24.459 5.376 27.365 3.555 32.608 24.797 35.375 44.432.489 3.473.843 5.983 1.505 7.912a5.63 5.63 0 0 0 6.802 3.607l15.824-4.288a5.63 5.63 0 0 0 3.965-6.911l-6.583-24.301c-1.637-6.039 1.946-12.282 7.985-13.918a11.431 11.431 0 0 1 2.977-.398c5.104 0 9.604 3.447 10.941 8.385a11.31 11.31 0 0 1-4.772 12.487 5.63 5.63 0 0 0-2.551 4.278c-.314 3.918-1.229 21.346 6.132 30.938-7.409 8.56-17.976 14.738-31.482 18.398-14.369 3.894-28.954 2.292-41.521-3.506 1.933-1.313 2.933-3.733 2.287-6.116a5.628 5.628 0 0 0-6.91-3.965l-8.11 2.197a60.95 60.95 0 0 1-8.272-8.019l10.923-2.958a12.756 12.756 0 0 1 9.758 1.258 12.768 12.768 0 0 1 6.011 7.791l1.874 6.916a5.636 5.636 0 0 0 6.913 3.966 5.633 5.633 0 0 0 3.964-6.911l-1.873-6.915a23.958 23.958 0 0 0-11.281-14.618c-5.589-3.208-12.093-4.045-18.312-2.361l-14.807 4.01a61.069 61.069 0 0 1-5.614-13.781c-4.247-15.683-2.802-29.788 4.393-42.985zm126.984 16.634c-1.826 21.974-11.663 35.999-17.159 42.24-2.222-4.601-2.983-12.591-2.795-18.844a22.54 22.54 0 0 0 7.1-23.083c-2.664-9.837-11.635-16.706-21.817-16.706a22.67 22.67 0 0 0-5.924.792c-12.035 3.261-19.174 15.705-15.913 27.74l5.107 18.864-4.503 1.22-.088-.62c-2.07-14.687-6.913-49.078-45.081-54.034-25.672-3.335-30.377-8.87-31.209-11.095-1.133-3.032 1.661-8.548 7.868-15.534 14.359-16.16 32.718-24.354 54.564-24.354 1.725 0 3.496.052 5.26.157 15.064.888 36.193 7.636 50.309 23.913 11.132 12.832 15.935 29.435 14.281 49.344z"/></svg>